<?xml version="1.0" standalone="no"?><!DOCTYPE svg PUBLIC "-//W3C//DTD SVG 1.1//EN" "http://www.w3.org/Graphics/SVG/1.1/DTD/svg11.dtd"><svg t="1631094606946" class="icon" viewBox="0 0 1024 1024" version="1.1" xmlns="http://www.w3.org/2000/svg" p-id="2290" xmlns:xlink="http://www.w3.org/1999/xlink" width="200" height="200"><defs><style type="text/css"></style></defs><path d="M356.644571 795.977143a154.971429 154.971429 0 0 1 84.315429-5.266286 504.685714 504.685714 0 0 0 71.04 4.992c227.876571 0 407.424-150.674286 407.424-328.722286 0-178.029714-179.565714-328.704-407.424-328.704-227.894857 0-407.424 150.674286-407.424 328.704 0 91.922286 47.634286 178.944 131.163429 241.188572a707.785143 707.785143 0 0 0 18.413714 12.854857c-0.365714-0.237714 1.005714 0.676571-0.859429-0.438857l3.474286 2.066286 3.254857 2.395428c33.316571 24.539429 49.225143 57.398857 51.456 93.220572 17.883429-9.929143 35.053714-18.834286 45.165714-22.308572zM39.68 467.382857C39.68 248.502857 251.117714 71.04 512 71.04c260.845714 0 472.32 177.444571 472.32 396.306286 0 218.898286-211.474286 396.361143-472.32 396.361143-28.324571 0-56.009143-2.102857-82.962286-6.089143l-0.164571-0.036572c-63.798857-15.213714-90.806857 55.734857-236.196572 92.525715-29.860571 7.570286-33.462857 0.036571-10.587428-24.228572 41.398857-43.812571 81.298286-115.236571 39.826286-145.773714-1.28-0.731429-17.261714-11.776-23.350858-16.237714-97.462857-72.594286-158.884571-178.596571-158.884571-296.521143z" p-id="2291"></path><path d="M733.293714 292.571429H300.854857C285.44 292.571429 274.285714 304.146286 274.285714 318.72c0 14.994286 11.154286 26.569143 26.569143 26.569143h432.438857a26.148571 26.148571 0 0 0 26.569143-26.569143c0-14.573714-11.574857-26.148571-26.569143-26.148571z m0 149.577142H300.854857c-15.433143 0-26.569143 11.995429-26.569143 26.989715 0 14.573714 11.154286 25.728 26.569143 25.728h432.438857c14.994286 0 26.569143-11.154286 26.569143-25.728 0-14.994286-11.574857-26.989714-26.569143-26.989715zM580.717714 585.142857H300.854857C285.44 585.142857 274.285714 597.138286 274.285714 612.150857c0 14.555429 11.154286 25.709714 26.569143 25.709714h279.862857c14.994286 0 26.569143-11.154286 26.569143-25.709714 0-14.994286-11.574857-27.008-26.569143-27.008z" p-id="2292"></path></svg>