<?xml version="1.0" standalone="no"?><!DOCTYPE svg PUBLIC "-//W3C//DTD SVG 1.1//EN" "http://www.w3.org/Graphics/SVG/1.1/DTD/svg11.dtd"><svg t="1631094547390" class="icon" viewBox="0 0 1031 1024" version="1.1" xmlns="http://www.w3.org/2000/svg" p-id="1753" xmlns:xlink="http://www.w3.org/1999/xlink" width="201.3671875" height="200"><defs><style type="text/css"></style></defs><path d="M842.325333 688.512A424.576 424.576 0 0 0 903.424 469.333333c0-235.648-191.018667-426.666667-426.666667-426.666666s-426.666667 191.018667-426.666666 426.666666c0 235.562667 191.018667 426.666667 426.666666 426.666667a424.576 424.576 0 0 0 236.928-71.936L988.757333 981.333333l-146.432-292.821333z" fill="#E5F0FD" p-id="1754"></path><path d="M1027.925333 964.48h0.085334l-128.682667-292.650667A466.304 466.304 0 0 0 946.090667 469.333333c0-259.242667-210.090667-469.333333-469.333334-469.333333-259.157333 0-469.333333 210.090667-469.333333 469.333333 0 259.157333 210.176 469.333333 469.333333 469.333334 80.597333 0 155.562667-21.589333 221.738667-57.429334l273.408 139.264 0.170667-0.341333a42.666667 42.666667 0 0 0 16.682666 3.84 42.666667 42.666667 0 0 0 39.168-59.52z m-313.002666-170.410667a43.221333 43.221333 0 0 0-16.853334-3.413333 41.472 41.472 0 0 0-20.096 5.674667l-0.170666-0.341334A381.696 381.696 0 0 1 476.757333 853.333333c-212.096 0-384-171.904-384-384s171.904-384 384-384A384 384 0 0 1 814.933333 651.349333l0.896 0.512a41.856 41.856 0 0 0-5.76 20.181334 41.813333 41.813333 0 0 0 3.498667 16.768l88.064 200.405333-186.709333-95.146667z" fill="#69A8D1" p-id="1755"></path><path d="M306.090667 426.666667a42.666667 42.666667 0 1 0-0.085334 85.248A42.666667 42.666667 0 0 0 306.090667 426.666667z m170.666666 0a42.666667 42.666667 0 1 0-0.085333 85.248A42.666667 42.666667 0 0 0 476.757333 426.666667z m170.666667 0a42.666667 42.666667 0 1 0-0.085333 85.248A42.666667 42.666667 0 0 0 647.424 426.666667z" fill="#587EA0" p-id="1756"></path></svg>