<?xml version="1.0" standalone="no"?><!DOCTYPE svg PUBLIC "-//W3C//DTD SVG 1.1//EN" "http://www.w3.org/Graphics/SVG/1.1/DTD/svg11.dtd"><svg t="1631094575755" class="icon" viewBox="0 0 1024 1024" version="1.1" xmlns="http://www.w3.org/2000/svg" p-id="1891" xmlns:xlink="http://www.w3.org/1999/xlink" width="200" height="200"><defs><style type="text/css"></style></defs><path d="M512 1024c-3.413333 0-6.826667 0-10.24-3.413333-3.413333-3.413333-6.826667-6.826667-6.826667-13.653334V921.6c-245.76-10.24-443.733333-211.626667-443.733333-460.8C51.2 208.213333 259.413333 0 512 0s460.8 208.213333 460.8 460.8c0 235.52-235.52 525.653333-460.8 563.2 3.413333 0 0 0 0 0z m0-989.866667C276.48 34.133333 85.333333 225.28 85.333333 460.8S276.48 887.466667 512 887.466667c10.24 0 17.066667 6.826667 17.066667 17.066666v81.92c197.973333-47.786667 409.6-314.026667 409.6-525.653333C938.666667 225.28 747.52 34.133333 512 34.133333z" fill="" p-id="1892"></path><path d="M290.133333 512c-37.546667 0-68.266667-30.72-68.266666-68.266667s30.72-68.266667 68.266666-68.266666 68.266667 30.72 68.266667 68.266666-30.72 68.266667-68.266667 68.266667z m0-102.4c-20.48 0-34.133333 13.653333-34.133333 34.133333s13.653333 34.133333 34.133333 34.133334 34.133333-13.653333 34.133334-34.133334-13.653333-34.133333-34.133334-34.133333zM494.933333 512c-37.546667 0-68.266667-30.72-68.266666-68.266667s30.72-68.266667 68.266666-68.266666 68.266667 30.72 68.266667 68.266666-30.72 68.266667-68.266667 68.266667z m0-102.4c-20.48 0-34.133333 13.653333-34.133333 34.133333s13.653333 34.133333 34.133333 34.133334 34.133333-13.653333 34.133334-34.133334-13.653333-34.133333-34.133334-34.133333zM699.733333 512c-37.546667 0-68.266667-30.72-68.266666-68.266667s30.72-68.266667 68.266666-68.266666 68.266667 30.72 68.266667 68.266666-30.72 68.266667-68.266667 68.266667z m0-102.4c-20.48 0-34.133333 13.653333-34.133333 34.133333s13.653333 34.133333 34.133333 34.133334 34.133333-13.653333 34.133334-34.133334-13.653333-34.133333-34.133334-34.133333z" fill="" p-id="1893"></path></svg>